# This file uses centimeters as units for non-parametric coordinates.

g default
v -0.198883 0.475410 -0.006539
v -0.168720 0.558090 -0.100698
v -0.234703 0.465075 -0.095467
v -0.174381 0.475410 -0.168702
v -0.082005 0.482300 -0.151701
v -0.097084 0.558090 -0.085005
v -0.047100 0.482629 -0.062099
v -0.142326 0.551200 -0.035310
v -0.103390 0.476873 0.008165
v -0.112171 0.130910 -0.103313
v -0.059387 0.068900 -0.009154
v -0.142330 0.130910 -0.064080
v -0.082008 0.165360 -0.011770
v -0.048077 0.165360 -0.051003
v -0.127254 0.144690 -0.019616
v -0.063156 0.151580 -0.095467
v 0.008480 0.089570 0.001308
v -0.032993 0.082680 0.030079
v -0.010368 0.075790 -0.037925
v 0.121593 0.682110 0.105929
v 0.016022 0.606320 0.051003
v 0.057499 0.613210 0.150393
v 0.098969 0.682110 0.035310
v 0.087658 0.599430 -0.040541
v 0.178150 0.675220 0.045772
v 0.193226 0.592540 -0.019616
v 0.234703 0.578760 0.082389
v 0.163067 0.592540 0.168702
v -0.051846 -0.000000 -0.053618
v -0.082008 -0.000000 -0.009154
v -0.070698 0.103350 -0.001308
v 0.117828 0.330720 0.155624
v -0.036762 0.124020 0.069312
v 0.057499 0.165360 0.108544
v 0.016026 0.351390 0.139931
v 0.106510 0.158470 0.051003
v 0.181919 0.316940 0.074543
v 0.121590 0.254930 -0.019616
v 0.012249 0.206700 -0.030078
v -0.036762 0.213590 0.030079
v 0.019794 0.089570 -0.035309
v 0.038647 0.082680 0.017001
v 0.004711 0.089570 0.061465
v 0.031105 -0.000000 0.006539
v -0.006599 -0.000000 0.051003
v -0.059387 0.000000 0.043157
v 0.008480 0.000000 -0.045771
vn -0.746594 0.599901 0.287603
vn -0.746594 0.599901 0.287603
vn -0.746594 0.599901 0.287603
vn -0.746594 0.599901 0.287603
vn -0.710909 0.475141 -0.518507
vn -0.710909 0.475141 -0.518507
vn -0.710909 0.475141 -0.518507
vn 0.122835 0.646971 -0.752556
vn 0.122835 0.646971 -0.752556
vn 0.122835 0.646971 -0.752556
vn 0.122835 0.646971 -0.752556
vn 0.830819 0.451573 -0.325304
vn 0.830819 0.451572 -0.325304
vn 0.830819 0.451572 -0.325304
vn -0.025147 0.993071 0.114792
vn -0.025147 0.993071 0.114792
vn -0.025147 0.993071 0.114792
vn 0.583028 0.592474 0.555925
vn 0.583028 0.592474 0.555925
vn 0.583028 0.592474 0.555925
vn 0.583028 0.592474 0.555925
vn -0.143073 0.442777 0.885143
vn -0.143073 0.442777 0.885143
vn -0.143073 0.442777 0.885143
vn -0.279884 -0.866348 -0.413650
vn -0.279884 -0.866348 -0.413650
vn -0.279884 -0.866348 -0.413650
vn -0.279884 -0.866348 -0.413650
vn -0.899835 -0.211448 0.381558
vn -0.899835 -0.211448 0.381558
vn -0.899835 -0.211448 0.381558
vn -0.899835 -0.211448 0.381558
vn -0.741250 -0.257245 -0.619979
vn -0.741250 -0.257245 -0.619979
vn -0.741250 -0.257245 -0.619979
vn -0.741250 -0.257245 -0.619979
vn 0.199487 -0.150461 -0.968280
vn 0.199487 -0.150461 -0.968280
vn 0.199487 -0.150461 -0.968280
vn 0.199487 -0.150461 -0.968280
vn 0.468570 0.660647 0.586504
vn 0.468570 0.660647 0.586504
vn 0.468570 0.660647 0.586504
vn 0.468570 0.660647 0.586504
vn -0.674607 -0.533688 0.509983
vn -0.674607 -0.533688 0.509983
vn -0.674607 -0.533688 0.509983
vn -0.674607 -0.533688 0.509983
vn 0.315036 -0.424897 -0.848655
vn 0.315036 -0.424897 -0.848655
vn 0.315036 -0.424897 -0.848655
vn 0.848626 0.292954 -0.440469
vn 0.848626 0.292954 -0.440469
vn 0.848626 0.292954 -0.440468
vn 0.848626 0.292954 -0.440469
vn -0.290410 0.289480 0.912065
vn -0.290410 0.289480 0.912065
vn -0.290410 0.289480 0.912065
vn -0.146752 -0.071964 0.986552
vn -0.146752 -0.071964 0.986552
vn -0.146752 -0.071964 0.986552
vn -0.146752 -0.071964 0.986552
vn 0.771251 0.016084 0.636328
vn 0.771251 0.016084 0.636328
vn 0.771251 0.016084 0.636328
vn 0.771251 0.016084 0.636328
vn 0.937301 -0.010346 -0.348368
vn 0.937301 -0.010346 -0.348368
vn 0.937301 -0.010346 -0.348368
vn 0.937301 -0.010346 -0.348368
vn -0.640205 0.738527 0.211460
vn -0.640205 0.738527 0.211460
vn -0.640206 0.738527 0.211460
vn -0.640205 0.738527 0.211460
vn -0.624006 0.572892 -0.531425
vn -0.624005 0.572892 -0.531425
vn -0.624006 0.572892 -0.531425
vn 0.174727 0.641775 -0.746723
vn 0.174727 0.641775 -0.746723
vn 0.174727 0.641775 -0.746723
vn 0.174727 0.641775 -0.746723
vn 0.868293 0.395311 -0.299661
vn 0.868293 0.395310 -0.299661
vn 0.868293 0.395311 -0.299661
vn 0.090451 0.995479 -0.028979
vn 0.090451 0.995479 -0.028979
vn 0.090451 0.995479 -0.028979
vn 0.644174 0.595741 0.479722
vn 0.644174 0.595741 0.479722
vn 0.644174 0.595741 0.479722
vn 0.644174 0.595741 0.479722
vn -0.032874 0.563352 0.825563
vn -0.032874 0.563352 0.825563
vn -0.032874 0.563352 0.825563
vn -0.670093 0.234269 -0.704339
vn -0.670093 0.234269 -0.704339
vn -0.673485 0.250478 -0.695471
vn -0.684475 0.313072 -0.658392
vn -0.233823 -0.248564 0.939970
vn -0.240992 -0.220120 0.945235
vn -0.242566 -0.213734 0.946298
vn -0.242566 -0.213734 0.946298
vn -0.165080 -0.016994 0.986134
vn -0.165080 -0.016994 0.986134
vn -0.165080 -0.016994 0.986134
vn -0.165080 -0.016994 0.986134
vn 0.673404 -0.415598 0.611397
vn 0.673404 -0.415598 0.611397
vn 0.673404 -0.415598 0.611397
vn 0.673404 -0.415598 0.611397
vn 0.752360 -0.166308 0.637413
vn 0.752360 -0.166308 0.637413
vn 0.752360 -0.166308 0.637413
vn 0.752360 -0.166308 0.637413
vn 0.838047 -0.410521 -0.359373
vn 0.873805 -0.368711 -0.317043
vn 0.803701 -0.445243 -0.394746
vn 0.890529 -0.179369 -0.418072
vn 0.890529 -0.179369 -0.418072
vn 0.890529 -0.179369 -0.418072
vn 0.890529 -0.179369 -0.418072
vn 0.152821 -0.044911 -0.987233
vn 0.152821 -0.044911 -0.987233
vn 0.152821 -0.044911 -0.987233
vn 0.152821 -0.044911 -0.987233
vn -0.769648 0.133927 -0.624264
vn -0.769648 0.133927 -0.624264
vn -0.769648 0.133927 -0.624264
vn -0.769648 0.133927 -0.624264
vn -0.922594 0.119248 0.366879
vn -0.933886 0.118510 0.337361
vn -0.937463 0.125958 0.324498
vn -0.933410 0.118169 0.338795
vn -0.933410 0.118169 0.338795
vn 0.161796 0.071774 -0.984211
vn 0.089164 0.053225 -0.994594
vn 0.147893 0.068237 -0.986647
vn 0.161796 0.071774 -0.984211
vn 0.782215 -0.464838 -0.414808
vn 0.782215 -0.464838 -0.414808
vn 0.516725 -0.685591 0.512796
vn 0.516725 -0.685591 0.512796
vn 0.516725 -0.685591 0.512796
vn 0.516725 -0.685591 0.512796
vn 0.762677 -0.159609 0.626776
vn 0.762677 -0.159609 0.626776
vn 0.762677 -0.159610 0.626776
vn 0.762677 -0.159610 0.626776
vn -0.910635 0.075152 0.406321
vn -0.910529 0.094430 0.402518
vn -0.910635 0.075152 0.406321
vn -0.058351 -0.159671 0.985444
vn -0.058351 -0.159671 0.985444
vn -0.058351 -0.159671 0.985444
vn -0.058351 -0.159671 0.985444
vn 0.926853 -0.056375 -0.371167
vn 0.926853 -0.056375 -0.371167
vn 0.926853 -0.056375 -0.371167
vn 0.926853 -0.056375 -0.371167
vn -0.692820 0.386586 -0.608730
vn 0.073593 0.049226 -0.996073
vn -0.183670 -0.423202 0.887223
s off
g Cactus_02_Desert
f 2//1 3//2 1//3 8//4
f 2//5 4//6 3//7
f 5//8 4//9 2//10 6//11
f 6//12 7//13 5//14
f 8//15 6//16 2//17
f 9//18 7//19 6//20 8//21
f 9//22 8//23 1//24
f 11//25 12//26 10//27 19//28
f 3//29 12//30 15//31 1//32
f 10//33 12//34 3//35 4//36
f 16//37 10//38 4//39 5//40
f 17//41 14//42 13//43 18//44
f 11//45 18//46 15//47 12//48
f 16//49 19//50 10//51
f 19//52 16//53 14//54 17//55
f 13//56 15//57 18//58
f 13//59 9//60 1//61 15//62
f 13//63 14//64 7//65 9//66
f 5//67 7//68 14//69 16//70
f 21//71 22//72 20//73 23//74
f 23//75 24//76 21//77
f 25//78 26//79 24//80 23//81
f 26//82 25//83 27//84
f 20//85 25//86 23//87
f 28//88 27//89 25//90 20//91
f 20//92 22//93 28//94
s 1
f 29//95 30//96 31//97 39//98
s 2
f 33//99 34//100 32//101 35//102
s off
f 35//103 32//104 28//105 22//106
f 32//107 34//108 36//109 37//110
f 32//111 37//112 27//113 28//114
s 3
f 38//115 37//116 36//117
s off
f 27//118 37//119 38//120 26//121
f 24//122 26//123 38//124 39//125
f 39//126 40//127 21//128 24//129
s 4
f 33//130 35//131 40//132
f 35//131 22//133 21//134 40//132
s 5
f 29//135 39//136 41//137 47//138
s 3
f 42//139 41//140 38//115 36//117
s off
f 34//141 43//142 42//143 36//144
f 45//145 44//146 42//147 43//148
s 4
f 46//149 33//130 31//150 30//151
s off
f 46//152 45//153 43//154 33//155
f 44//156 47//157 41//158 42//159
s 1
f 31//97 40//160 39//98
s 5
f 39//136 38//161 41//137
s 2
f 43//162 34//100 33//99
s 4
f 33//130 40//132 31//150
