# This file uses centimeters as units for non-parametric coordinates.

g default
v 0.573488 0.285541 0.025393
v 0.555424 0.168265 -0.014703
v 0.519295 0.193759 -0.052127
v 0.438015 0.112177 -0.073514
v 0.501238 0.096880 -0.030742
v 0.365767 0.000000 -0.001340
v 0.275454 0.000000 0.046784
v 0.383831 0.158067 -0.030742
v 0.474140 0.193759 -0.014703
v 0.456079 0.000000 0.046784
v -0.302551 0.000000 0.030740
v -0.347706 0.188661 -0.022723
v -0.266422 0.193759 0.049457
v -0.374798 0.270244 0.052131
v -0.428986 0.285541 0.009356
v -0.483175 0.397717 0.001340
v -0.456081 0.234551 0.052131
v -0.401894 0.137671 0.049457
v -0.383831 0.000000 0.105596
v -0.230299 0.000000 0.105596
v -0.573488 0.275342 0.004010
v -0.447048 0.168265 0.046781
v -0.492207 0.183562 0.014705
v -0.447050 0.091781 0.009356
v -0.392862 0.071385 0.060151
v -0.438019 -0.000000 -0.038762
v -0.519299 0.147870 0.046784
v -0.510269 0.071385 0.060151
v -0.528330 0.000000 0.014707
v -0.356733 0.000000 0.014705
v -0.130957 -0.000000 -0.135001
v -0.112892 0.209056 -0.068168
v -0.004515 0.000000 -0.169753
v 0.004515 0.183562 -0.102921
v 0.031609 0.387521 -0.065494
v 0.103859 0.356927 -0.100247
v 0.248360 0.479299 -0.102921
v 0.130953 0.331429 -0.028069
v 0.049671 0.107078 -0.009356
v 0.067734 0.000000 -0.065494
v -0.365770 0.601678 -0.084210
v -0.257391 0.443608 -0.068168
v -0.293518 0.392617 -0.025395
v -0.212236 0.209056 -0.078860
v -0.302547 0.188661 -0.006682
v -0.212234 -0.000000 -0.145694
v -0.302549 -0.000000 -0.073516
v -0.194174 0.423211 -0.025395
v -0.121923 0.188661 -0.006682
v -0.121923 0.000000 -0.073514
v -0.149017 0.627168 0.135001
v -0.013548 0.464002 0.126981
v -0.085798 0.504796 0.084207
v -0.112892 0.209056 0.084208
v 0.004515 0.183562 0.156386
v -0.031609 0.000000 0.017379
v -0.158049 0.000000 0.092227
v -0.239330 0.183562 0.156386
v -0.167080 0.464002 0.126981
v 0.094828 0.000000 0.092229
v 0.112890 0.000000 0.054803
v 0.248360 0.188661 -0.033416
v 0.221264 0.000000 -0.001338
v 0.311579 0.127474 -0.086881
v 0.329641 0.402818 -0.017373
v 0.374796 0.397717 -0.060147
v 0.438013 0.509892 0.028069
v 0.419952 0.372224 -0.017375
v 0.383829 0.117275 -0.033414
v 0.329641 0.000000 0.054805
v 0.031607 0.000000 0.105594
v 0.058702 0.382420 0.169753
v 0.139982 0.000000 0.030742
v 0.158045 0.351827 0.097573
v 0.185141 0.560883 0.110942
v 0.239328 0.525189 0.054801
v 0.230297 0.280442 0.169753
v 0.293518 0.499696 0.110942
v 0.392860 0.647569 0.121631
v 0.239326 0.000000 0.105596
vt 0.894896 0.000100
vt 0.903175 0.017054
vt 0.896144 0.017002
vt 0.892929 0.035030
vt 0.902574 0.031292
vt 0.893670 0.056233
vt 0.905464 0.048041
vt 0.881875 0.064426
vt 0.881691 0.033952
vt 0.890247 0.021098
vt 0.063904 0.564649
vt 0.065840 0.533033
vt 0.078778 0.536109
vt 0.075188 0.568092
vt 0.065497 0.519000
vt 0.057762 0.514029
vt 0.054644 0.493927
vt 0.051101 0.520701
vt 0.054948 0.538414
vt 0.051209 0.560776
vt 0.874503 0.181805
vt 0.891878 0.202291
vt 0.885063 0.198644
vt 0.889845 0.214523
vt 0.897969 0.219226
vt 0.888849 0.229442
vt 0.901849 0.231603
vt 0.879781 0.203632
vt 0.879191 0.216105
vt 0.874405 0.227041
vt 0.025101 0.081603
vt 0.008421 0.086536
vt 0.000100 0.055391
vt 0.017601 0.053481
vt 0.011644 0.022053
vt 0.023071 0.021608
vt 0.036958 0.000100
vt 0.031350 0.024500
vt 0.032089 0.058852
vt 0.036961 0.074577
vt 0.874405 0.081077
vt 0.888629 0.107331
vt 0.882202 0.114645
vt 0.891813 0.144408
vt 0.877489 0.146100
vt 0.888416 0.176801
vt 0.874422 0.175333
vt 0.898093 0.111519
vt 0.905476 0.149036
vt 0.902409 0.178268
vt 0.079351 0.856701
vt 0.093507 0.885059
vt 0.084383 0.876662
vt 0.070369 0.918775
vt 0.086585 0.926483
vt 0.075077 0.951965
vt 0.093476 0.956271
vt 0.056678 0.947659
vt 0.051101 0.918179
vt 0.071166 0.879830
vt 0.911201 0.889776
vt 0.896263 0.897804
vt 0.900958 0.861763
vt 0.914205 0.865513
vt 0.896296 0.826222
vt 0.902898 0.823580
vt 0.903301 0.803434
vt 0.911011 0.823748
vt 0.924920 0.861567
vt 0.926139 0.881746
vt 0.025980 0.963664
vt 0.009668 0.967532
vt 0.000100 0.909007
vt 0.016144 0.910066
vt 0.012762 0.877634
vt 0.022191 0.881073
vt 0.029566 0.918232
vt 0.040932 0.960119
vt 0.031257 0.882976
vt 0.040932 0.857175
vn 0.750790 0.107197 -0.651785
vn 0.627345 -0.140963 -0.765877
vn 0.605641 -0.174602 -0.776346
vn 0.388785 -0.578887 -0.716753
vn 0.415140 -0.534718 -0.736027
vn 0.330258 -0.665082 -0.669773
vn 0.330258 -0.665082 -0.669773
vn -0.550864 -0.091354 -0.829580
vn -0.550864 -0.091354 -0.829580
vn -0.511953 0.107042 -0.852318
vn -0.494599 0.171105 -0.852112
vn -0.321726 0.661782 -0.677154
vn -0.354415 0.678145 -0.643824
vn -0.445151 0.716492 -0.537103
vn 0.691460 -0.059384 -0.719970
vn 0.666413 0.260103 -0.698742
vn 0.688596 0.091905 -0.719297
vn 0.691460 -0.059384 -0.719970
vn 0.526628 0.636962 -0.562977
vn 0.582737 0.505594 -0.636234
vn 0.642441 0.258798 -0.721314
vn -0.569707 -0.329030 -0.753109
vn -0.606044 -0.316238 -0.729866
vn -0.619562 -0.311198 -0.720624
vn -0.624423 -0.333674 -0.706228
vn -0.623901 -0.342351 -0.702527
vn -0.623050 -0.354817 -0.697075
vn -0.623050 -0.354817 -0.697075
vn 0.611690 0.467346 -0.638297
vn 0.667881 0.336614 -0.663797
vn 0.643905 0.397317 -0.653855
vn 0.621642 0.430832 -0.654175
vn 0.597530 0.474094 -0.646678
vn 0.568166 0.522036 -0.636134
vn 0.568166 0.522036 -0.636134
vn -0.386377 -0.436838 -0.812334
vn -0.497537 -0.323561 -0.804839
vn -0.545751 -0.267135 -0.794226
vn -0.587714 0.212963 -0.780538
vn -0.587240 0.217012 -0.779779
vn -0.543786 0.439910 -0.714686
vn -0.543786 0.439910 -0.714686
vn -0.227106 0.327868 -0.917020
vn -0.227106 0.327868 -0.917020
vn -0.249440 0.280751 -0.926800
vn -0.252359 0.274421 -0.927905
vn -0.283218 0.225004 -0.932288
vn -0.285740 0.247286 -0.925852
vn 0.570378 -0.683478 -0.455551
vn 0.724787 -0.429328 -0.538852
vn 0.712343 -0.456850 -0.532781
vn 0.832980 -0.154902 -0.531177
vn 0.863566 -0.015595 -0.503994
vn 0.874195 0.212001 -0.436852
vn 0.874195 0.212001 -0.436852
vn -0.293587 0.327049 -0.898246
vn -0.432531 -0.379565 -0.817831
vn -0.571724 -0.198248 -0.796134
vn -0.628922 -0.105668 -0.770254
vn -0.642148 0.112034 -0.758350
vn -0.640956 0.123217 -0.757623
vn -0.621599 0.249551 -0.742522
vn -0.621599 0.249551 -0.742522
vn 0.599772 0.337601 -0.725465
vn 0.616772 0.153480 -0.772033
vn 0.614187 0.207028 -0.761521
vn 0.620290 0.194362 -0.759910
vn 0.620772 0.206953 -0.756183
vn 0.621608 0.249548 -0.742515
vn 0.621608 0.249548 -0.742515
vn 0.633002 0.552222 -0.542549
vn 0.516759 -0.021815 -0.855853
vn 0.561429 0.100396 -0.821412
vn 0.517449 0.170727 -0.838510
vn 0.515192 0.262545 -0.815872
vn 0.492967 0.461520 -0.737552
vn 0.492967 0.461520 -0.737552
vn -0.506912 0.076562 -0.858591
vn -0.506912 0.076562 -0.858591
vn -0.500463 0.058808 -0.863758
vn -0.500224 0.058159 -0.863941
vn -0.494552 0.046310 -0.867913
vn -0.495638 0.053784 -0.866862
vn -0.501453 0.097767 -0.859644
vn -0.552857 -0.061887 -0.830975
vn -0.552857 -0.061887 -0.830975
vn -0.563029 0.098386 -0.820560
vn -0.562018 0.062650 -0.824749
vn -0.552928 0.316702 -0.770695
vn -0.551601 0.327998 -0.766912
vn 0.719676 0.130682 -0.681901
vn 0.641026 -0.024471 -0.767129
vn 0.641494 -0.023672 -0.766763
vn 0.525557 -0.376169 -0.763077
vn 0.528890 -0.368240 -0.764640
vn 0.356299 -0.671580 -0.649639
vn 0.356299 -0.671580 -0.649639
vn -0.451730 0.694743 -0.559707
vn -0.550657 0.179308 -0.815246
vn -0.550657 0.179308 -0.815246
vn -0.566193 0.164596 -0.807671
vn -0.566907 0.163912 -0.807310
vn -0.548508 0.258597 -0.795152
vn -0.523030 0.310625 -0.793695
vn 0.677196 0.139980 -0.722365
vn 0.613547 -0.119108 -0.780624
vn 0.655842 0.028812 -0.754348
vn 0.677196 0.139980 -0.722365
vn 0.520450 -0.374894 -0.767194
vn 0.516043 -0.376583 -0.769340
vn -0.252047 0.687897 -0.680639
vn 0.592085 -0.345129 -0.728231
s 1
g Grass_02_Desert
f 1/1/1 2/2/2 3/3/3
f 4/4/4 3/3/3 2/2/2 5/5/5
f 6/6/6 4/4/4 5/5/5 10/7/7
s 2
f 6/6/8 7/8/9 8/9/10 4/4/11
f 4/4/11 8/9/10 9/10/12 3/3/13
f 3/3/13 9/10/12 1/1/14
s 3
f 11/11/15 12/12/16 13/13/17 20/14/18
f 14/15/19 13/13/17 12/12/16 15/16/20
f 15/16/20 16/17/21 14/15/19
s 4
f 16/17/22 15/16/23 17/18/24
f 17/18/24 15/16/23 12/12/25 18/19/26
f 18/19/26 12/12/25 11/11/27 19/20/28
s 5
f 21/21/29 22/22/30 23/23/31
f 24/24/32 23/23/31 22/22/30 25/25/33
f 26/26/34 24/24/32 25/25/33 30/27/35
s 6
f 21/21/36 23/23/37 27/28/38
f 27/28/38 23/23/37 24/24/39 28/29/40
f 28/29/40 24/24/39 26/26/41 29/30/42
s 7
f 33/31/43 31/32/44 32/33/45 34/34/46
f 34/34/46 32/33/45 35/35/47 36/36/48
s 8
f 37/37/49 38/38/50 36/36/51
f 34/34/52 36/36/51 38/38/50 39/39/53
f 33/31/54 34/34/52 39/39/53 40/40/55
s 7
f 36/36/48 35/35/47 37/37/56
s 9
f 41/41/57 42/42/58 43/43/59
f 43/43/59 42/42/58 44/44/60 45/45/61
f 45/45/61 44/44/60 46/46/62 47/47/63
s 10
f 41/41/64 48/48/65 42/42/66
f 44/44/67 42/42/66 48/48/65 49/49/68
f 46/46/69 44/44/67 49/49/68 50/50/70
s 11
f 51/51/71 52/52/72 53/53/73
f 54/54/74 53/53/73 52/52/72 55/55/75
f 56/56/76 54/54/74 55/55/75 60/57/77
s 12
f 56/56/78 57/58/79 58/59/80 54/54/81
f 54/54/81 58/59/80 59/60/82 53/53/83
f 53/53/83 59/60/82 51/51/84
s 13
f 63/61/85 61/62/86 62/63/87 64/64/88
f 64/64/88 62/63/87 65/65/89 66/66/90
s 14
f 67/67/91 68/68/92 66/66/93
f 64/64/94 66/66/93 68/68/92 69/69/95
f 63/61/96 64/64/94 69/69/95 70/70/97
s 13
f 66/66/90 65/65/89 67/67/98
s 15
f 73/71/99 71/72/100 72/73/101 74/74/102
f 74/74/102 72/73/101 75/75/103 76/76/104
s 16
f 73/71/105 74/74/106 77/77/107 80/78/108
f 78/79/109 77/77/107 74/74/106 76/76/110
s 15
f 76/76/104 75/75/103 79/80/111
s 16
f 78/79/109 76/76/110 79/80/112
