# This file uses centimeters as units for non-parametric coordinates.

g default
v -0.226339 0.072353 0.123934
v 0.249475 0.072348 0.007528
v -0.286238 0.072353 0.009026
v 0.258633 0.072348 -0.109404
v -0.272762 0.072353 -0.107919
v 0.266174 0.072348 0.122558
v -0.307798 0.000000 0.009705
v -0.243385 0.000000 0.133269
v 0.268265 -0.000005 0.008095
v 0.278111 -0.000005 -0.117645
v -0.293304 0.000000 -0.116046
v 0.286221 -0.000005 0.131788
vn 0.460807 0.885083 -0.065459
vn 0.460807 0.885083 -0.065459
vn 0.460807 0.885083 -0.065459
vn 0.460807 0.885083 -0.065459
vn 0.460807 0.885083 -0.065459
vn 0.460807 0.885083 -0.065459
vn 0.460807 0.885083 -0.065459
vn 0.460807 0.885083 -0.065459
vn -0.856402 0.259377 0.446430
vn -0.856402 0.259377 0.446430
vn -0.856402 0.259377 0.446430
vn -0.856402 0.259377 0.446430
vn 0.964986 0.251179 0.075565
vn 0.964986 0.251179 0.075565
vn 0.964987 0.251180 0.075565
vn 0.964987 0.251179 0.075565
vn -0.002778 0.112417 -0.993657
vn -0.002778 0.112417 -0.993657
vn -0.002778 0.112417 -0.993657
vn -0.002778 0.112417 -0.993657
vn 0.002774 0.127305 0.991860
vn 0.002774 0.127305 0.991860
vn 0.002774 0.127305 0.991860
vn 0.002774 0.127305 0.991860
vn 0.958742 0.247878 -0.139178
vn 0.958742 0.247878 -0.139178
vn 0.958742 0.247878 -0.139178
vn 0.958742 0.247878 -0.139178
vn -0.952847 0.282887 -0.109811
vn -0.952847 0.282887 -0.109811
vn -0.952847 0.282887 -0.109811
vn -0.952847 0.282887 -0.109811
s off
g Rock_04_Desert
f 2//1 3//2 1//3 6//4
f 2//5 4//6 5//7 3//8
f 1//9 3//10 7//11 8//12
f 4//13 2//14 9//15 10//16
f 5//17 4//18 10//19 11//20
f 6//21 1//22 8//23 12//24
f 2//25 6//26 12//27 9//28
f 3//29 5//30 11//31 7//32
