# This file uses centimeters as units for non-parametric coordinates.

g default
v -0.929117 0.241007 -0.158873
v -0.626387 0.241007 -0.297130
v -0.802392 0.241007 0.116686
v -0.501159 0.241007 -0.021171
v -0.838536 0.626616 0.065526
v -0.499879 0.640898 -0.088178
v -0.978612 0.651609 -0.241904
v -0.641580 0.664998 -0.395700
v -0.882459 1.152366 -0.038574
v -0.611955 1.188070 -0.147563
v -0.759047 1.462103 0.284430
v -0.558905 1.487096 0.205936
v -0.782666 0.982769 0.148435
v -0.512293 1.017581 0.038954
v -0.567321 1.580226 0.539397
v -0.199637 0.178524 -0.122068
v -0.230529 0.168705 -0.422776
v 0.121884 0.191913 -0.172243
v 0.090863 0.182094 -0.473444
v -0.247960 0.781931 -0.374191
v 0.040623 0.811387 -0.409719
v -0.221873 1.183607 -0.085423
v -0.007050 1.205030 -0.109124
v -0.218742 0.625723 -0.145519
v 0.069710 0.655180 -0.181542
v -0.112894 1.367188 0.205647
v -0.204747 1.053285 0.008397
v 0.007776 1.076493 -0.035850
v 0.382539 0.230830 -0.194832
v 0.363554 0.220532 -0.524475
v 0.734822 0.246279 -0.237339
v 0.714402 0.235121 -0.566597
v 0.649814 0.490877 -0.301550
v 0.363538 0.476657 -0.269267
v 0.350770 0.629294 -0.502347
v 0.602209 0.951527 -0.287717
v 0.641074 0.641790 -0.531458
v 0.386854 0.950635 -0.265991
v 0.510392 1.265727 0.117295
v 0.603548 0.828347 -0.187021
v 0.387796 0.822098 -0.166776
v -0.842629 0.382040 0.205772
v -1.356293 0.000002 0.609535
v -0.862105 0.000000 0.186917
v -1.335231 0.459697 0.526646
v -1.536443 0.000002 0.367869
v -1.429029 0.444523 0.218457
v -1.064618 0.000000 -0.186055
v -1.060659 0.357046 -0.189231
v -0.818703 0.329696 0.148141
v -0.447502 0.309738 -0.460931
v -0.286230 0.309738 -0.020561
v -0.449504 -0.000000 -0.426533
v -0.308724 -0.000000 -0.044692
v -0.275320 0.254225 -0.088821
v 0.216509 0.325805 -0.590705
v -0.397103 0.254225 -0.411732
v 0.273806 0.325805 -0.125651
v 0.273702 0.269994 -0.534701
v 0.274776 0.000000 -0.157920
v 0.227899 0.000000 -0.560161
v 0.808290 0.000001 -0.577320
v 0.826831 0.000001 -0.188122
v 0.310159 0.269994 -0.195273
v 0.843793 0.229307 -0.534618
v 1.366084 0.215807 -0.182355
v 1.536443 0.211344 -0.407890
v 0.780424 0.286241 -0.609535
v 0.803714 0.285348 -0.151771
v 1.310164 0.000003 -0.199644
v 1.459055 0.000002 -0.499320
v 0.859077 0.227522 -0.214386
vt 0.247915 0.975280
vt 0.247820 0.916100
vt 0.297934 0.918293
vt 0.292495 0.975351
vt 0.686533 0.691426
vt 0.648543 0.679435
vt 0.672376 0.628498
vt 0.715848 0.638431
vt 0.816222 0.000971
vt 0.861115 0.000100
vt 0.869636 0.060846
vt 0.819695 0.063802
vt 0.408819 0.531430
vt 0.359139 0.567261
vt 0.345558 0.526034
vt 0.393825 0.495609
vt 0.857506 0.135277
vt 0.816118 0.141559
vt 0.866804 0.185730
vt 0.835325 0.190807
vt 0.289750 0.865572
vt 0.249745 0.860357
vt 0.289756 0.529998
vt 0.277760 0.563472
vt 0.676444 0.575789
vt 0.709607 0.560545
vt 0.861558 0.232754
vt 0.219739 0.533834
vt 0.648543 0.476406
vt 0.678554 0.503787
vt 0.258021 0.777104
vt 0.189533 0.495609
vt 0.481873 0.869253
vt 0.438765 0.870912
vt 0.437252 0.777149
vt 0.485023 0.778182
vt 0.484948 0.912213
vt 0.452886 0.913852
vt 0.598461 0.879869
vt 0.598797 0.942422
vt 0.553826 0.942712
vt 0.557998 0.877695
vt 0.218382 0.885711
vt 0.238922 0.945452
vt 0.200238 0.959296
vt 0.182247 0.874959
vt 0.325442 0.887245
vt 0.361142 0.875050
vt 0.345228 0.957324
vt 0.306107 0.945103
vt 0.475899 0.957485
vt 0.593635 0.820280
vt 0.563814 0.818468
vt 0.219709 0.824947
vt 0.204834 0.811322
vt 0.320779 0.825518
vt 0.337834 0.811819
vt 0.578705 0.777080
vt 0.238922 0.777138
vt 0.306294 0.777136
vt 0.055405 0.693268
vt 0.095333 0.686541
vt 0.100173 0.721033
vt 0.051101 0.729594
vt 0.507332 0.882916
vt 0.503647 0.837251
vt 0.546292 0.837305
vt 0.538913 0.884185
vt 0.495539 0.777149
vt 0.547075 0.777291
vt 0.400891 0.326720
vt 0.420186 0.355444
vt 0.378136 0.371689
vt 0.364394 0.317553
vt 0.391028 0.895044
vt 0.427375 0.884322
vt 0.414202 0.938421
vt 0.371680 0.924133
vt 0.518752 0.929580
vt 0.051546 0.645305
vt 0.081501 0.639618
vt 0.400520 0.277957
vt 0.381969 0.266565
vt 0.391249 0.846035
vt 0.409217 0.833193
vt 0.051122 0.582134
vt 0.420185 0.207751
vt 0.371680 0.777107
vt 0.438463 0.202876
vt 0.325334 0.201969
vt 0.348561 0.135655
vt 0.439864 0.132538
vt 0.107814 0.002661
vt 0.113576 0.043076
vt 0.058906 0.043076
vt 0.051101 0.000100
vt 0.323216 0.000100
vt 0.446103 0.017357
vt 0.421135 0.078524
vt 0.334019 0.068326
vt 0.247153 0.077680
vt 0.337136 0.136815
vt 0.251657 0.137011
vt 0.236792 0.191236
vt 0.217611 0.025835
vt 0.155119 0.098233
vt 0.237385 0.080875
vt 0.242552 0.135377
vt 0.165407 0.145530
vt 0.146608 0.101425
vt 0.155806 0.145811
vt 0.162336 0.193286
vt 0.133251 0.054368
vt 0.025073 0.176112
vt 0.000810 0.157043
vt 0.077890 0.122525
vt 0.085583 0.159955
vt 0.068480 0.080372
vt 0.087687 0.118035
vt 0.094159 0.158640
vt 0.099339 0.199045
vt 0.985385 0.905365
vt 0.939978 0.909458
vt 0.947137 0.857683
vt 0.985387 0.859341
vt 0.046531 0.202878
vt 0.000100 0.115070
vn 0.406873 0.153525 0.900491
vn 0.406873 0.153525 0.900491
vn 0.406873 0.153525 0.900491
vn 0.406873 0.153525 0.900491
vn -0.909401 -0.027873 0.414986
vn -0.909401 -0.027873 0.414986
vn -0.909401 -0.027873 0.414987
vn -0.909401 -0.027873 0.414986
vn -0.400803 -0.224347 -0.888271
vn -0.400803 -0.224347 -0.888271
vn -0.400803 -0.224347 -0.888271
vn -0.400803 -0.224347 -0.888271
vn 0.906145 -0.068578 -0.417371
vn 0.906145 -0.068578 -0.417371
vn 0.906145 -0.068578 -0.417371
vn 0.906145 -0.068578 -0.417371
vn -0.389664 0.411239 -0.824042
vn -0.389664 0.411239 -0.824042
vn -0.389664 0.411239 -0.824042
vn -0.389664 0.411239 -0.824042
vn -0.328137 0.743149 -0.583143
vn -0.328137 0.743149 -0.583143
vn -0.328137 0.743149 -0.583143
vn -0.328137 0.743149 -0.583143
vn 0.400011 -0.274359 0.874482
vn 0.400011 -0.274359 0.874482
vn 0.400011 -0.274359 0.874482
vn 0.400011 -0.274359 0.874482
vn 0.910334 0.144364 -0.387881
vn 0.910334 0.144364 -0.387881
vn 0.910334 0.144364 -0.387881
vn 0.910334 0.144364 -0.387881
vn -0.897756 0.012185 0.440325
vn -0.897756 0.012185 0.440325
vn -0.897756 0.012185 0.440325
vn -0.897756 0.012185 0.440325
vn -0.221989 0.937646 -0.267470
vn -0.221989 0.937646 -0.267470
vn -0.221989 0.937646 -0.267470
vn 0.990941 0.119896 -0.060507
vn 0.957142 0.176647 -0.229512
vn 0.928583 0.202740 -0.310852
vn -0.758010 -0.143187 0.636332
vn -0.790433 -0.130831 0.598414
vn -0.872313 -0.093195 0.479984
vn 0.365716 -0.598333 0.712916
vn 0.365716 -0.598333 0.712916
vn 0.365716 -0.598333 0.712916
vn -0.906040 -0.073591 0.416744
vn 0.995008 0.099758 -0.002748
vn -0.145050 0.081231 -0.986084
vn -0.145050 0.081231 -0.986084
vn -0.145050 0.081231 -0.986084
vn -0.145050 0.081231 -0.986084
vn -0.152850 0.585705 -0.795981
vn -0.152850 0.585705 -0.795981
vn -0.152850 0.585705 -0.795981
vn -0.152850 0.585705 -0.795981
vn 0.136585 0.046287 0.989546
vn 0.136585 0.046287 0.989546
vn 0.136585 0.046287 0.989546
vn 0.136585 0.046287 0.989546
vn 0.991566 0.097217 -0.085704
vn 0.991566 0.097217 -0.085704
vn 0.991566 0.097217 -0.085704
vn 0.991566 0.097217 -0.085704
vn -0.994033 -0.036684 0.102725
vn -0.994033 -0.036684 0.102725
vn -0.994033 -0.036684 0.102725
vn -0.994033 -0.036684 0.102725
vn -0.139878 0.860298 -0.490226
vn -0.139878 0.860298 -0.490226
vn -0.139878 0.860298 -0.490226
vn 0.182501 -0.318055 0.930341
vn 0.182501 -0.318055 0.930341
vn 0.182501 -0.318055 0.930341
vn 0.182501 -0.318055 0.930341
vn 0.990102 0.139820 -0.012159
vn 0.990102 0.139820 -0.012159
vn 0.990102 0.139820 -0.012159
vn 0.990102 0.139820 -0.012159
vn -0.991900 -0.019094 0.125577
vn -0.991900 -0.019094 0.125576
vn -0.991900 -0.019094 0.125577
vn -0.991900 -0.019094 0.125577
vn 0.226864 -0.564911 0.793352
vn 0.226864 -0.564911 0.793352
vn 0.226864 -0.564911 0.793352
vn 0.952545 0.226070 0.203838
vn 0.952545 0.226070 0.203838
vn 0.952545 0.226070 0.203838
vn -0.950044 0.090249 0.298783
vn -0.950044 0.090249 0.298783
vn -0.950044 0.090249 0.298783
vn 0.098031 0.289930 0.952014
vn 0.098031 0.289930 0.952014
vn 0.098031 0.289930 0.952014
vn 0.098031 0.289930 0.952014
vn -0.095619 0.602423 -0.792429
vn -0.095619 0.602423 -0.792429
vn -0.095619 0.602423 -0.792429
vn -0.095619 0.602423 -0.792429
vn -0.112649 0.057769 -0.991954
vn -0.112649 0.057769 -0.991954
vn -0.112649 0.057769 -0.991954
vn -0.112649 0.057769 -0.991954
vn 0.980809 0.193618 0.022942
vn 0.971573 0.236588 0.008466
vn 0.971573 0.236588 0.008466
vn 0.985924 0.163936 0.032833
vn -0.997981 -0.044866 0.044964
vn -0.997981 -0.044866 0.044964
vn -0.997981 -0.044866 0.044964
vn -0.997981 -0.044866 0.044964
vn -0.065876 0.781113 -0.620905
vn -0.065876 0.781113 -0.620905
vn -0.065876 0.781113 -0.620905
vn 0.111343 -0.297716 0.948139
vn 0.111343 -0.297716 0.948139
vn 0.111343 -0.297716 0.948139
vn 0.111343 -0.297716 0.948139
vn 0.991795 0.105282 0.072509
vn 0.990735 0.107576 0.082895
vn -0.995454 0.048402 0.082027
vn -0.995454 0.048402 0.082027
vn -0.995454 0.048402 0.082027
vn -0.995454 0.048402 0.082027
vn 0.093632 -0.555108 0.826492
vn 0.093632 -0.555108 0.826492
vn 0.093632 -0.555108 0.826492
vn 0.984253 0.118165 0.131462
vn -0.970292 0.143332 0.194907
vn -0.970292 0.143332 0.194907
vn -0.970292 0.143332 0.194907
vn 0.603045 0.031595 0.797081
vn 0.603045 0.031595 0.797081
vn 0.603045 0.031595 0.797081
vn 0.603045 0.031595 0.797081
vn -0.872764 0.234059 0.428368
vn -0.872764 0.234059 0.428368
vn -0.872764 0.234059 0.428368
vn -0.872764 0.234059 0.428368
vn -0.753808 -0.020289 -0.656782
vn -0.753808 -0.020289 -0.656782
vn -0.753808 -0.020289 -0.656782
vn -0.753808 -0.020289 -0.656782
vn 0.103210 0.989387 -0.102284
vn 0.103210 0.989386 -0.102284
vn 0.103210 0.989386 -0.102284
vn 0.103210 0.989386 -0.102284
vn 0.060120 0.998183 0.003932
vn 0.060120 0.998183 0.003932
vn 0.060120 0.998183 0.003932
vn 0.060120 0.998183 0.003932
vn 0.898384 -0.067220 0.434036
vn 0.898384 -0.067220 0.434036
vn 0.898384 -0.067220 0.434036
vn 0.345639 -0.014130 0.938261
vn 0.345639 -0.014130 0.938261
vn 0.345639 -0.014130 0.938261
vn 0.345639 -0.014130 0.938261
vn -0.386007 -0.048462 -0.921222
vn -0.386007 -0.048462 -0.921222
vn -0.386007 -0.048462 -0.921222
vn -0.386007 -0.048462 -0.921222
vn -0.117283 0.992741 0.026655
vn -0.117283 0.992741 0.026655
vn -0.117283 0.992741 0.026655
vn -0.117283 0.992741 0.026655
vn 0.811959 0.500058 -0.301107
vn 0.811959 0.500058 -0.301107
vn 0.811959 0.500058 -0.301107
vn 0.811959 0.500058 -0.301107
vn 0.969975 -0.088103 0.226684
vn 0.969975 -0.088103 0.226684
vn 0.969975 -0.088103 0.226684
vn 0.758109 0.646116 -0.088350
vn 0.758109 0.646116 -0.088350
vn 0.758109 0.646116 -0.088350
vn 0.758109 0.646116 -0.088350
vn 0.130523 0.012972 0.991360
vn 0.130523 0.012972 0.991360
vn 0.130523 0.012972 0.991360
vn 0.130523 0.012972 0.991361
vn -0.234812 -0.009781 -0.971992
vn -0.234811 -0.009781 -0.971992
vn -0.234812 -0.009781 -0.971992
vn -0.234812 -0.009781 -0.971992
vn 0.869875 -0.046053 0.491117
vn 0.869875 -0.046053 0.491117
vn 0.869875 -0.046053 0.491117
vn 0.676000 -0.045323 -0.735506
vn 0.676000 -0.045323 -0.735506
vn 0.676000 -0.045323 -0.735506
vn 0.024461 0.999699 0.002045
vn 0.024461 0.999699 0.002045
vn 0.024461 0.999699 0.002045
vn 0.024461 0.999699 0.002045
vn -0.084178 -0.009386 -0.996406
vn -0.084178 -0.009386 -0.996406
vn -0.084178 -0.009386 -0.996407
vn -0.084178 -0.009386 -0.996406
vn -0.031468 0.999499 0.003478
vn -0.031468 0.999499 0.003478
vn -0.031468 0.999499 0.003478
vn -0.031468 0.999499 0.003478
vn -0.012750 0.002086 0.999917
vn -0.012750 0.002086 0.999917
vn -0.012750 0.002086 0.999917
vn -0.012750 0.002086 0.999917
vn 0.792260 -0.370629 0.484725
vn 0.792260 -0.370629 0.484725
vn 0.792260 -0.370629 0.484725
vn 0.792260 -0.370629 0.484725
vn -0.020411 0.024294 0.999496
vn -0.020411 0.024294 0.999497
vn -0.020411 0.024294 0.999496
vn -0.020411 0.024294 0.999497
vn 0.149063 0.252803 -0.955966
vn 0.149063 0.252803 -0.955966
vn 0.149063 0.252803 -0.955966
vn 0.149063 0.252803 -0.955966
vn 0.764174 0.001799 -0.645008
vn 0.764174 0.001799 -0.645008
vn 0.764174 0.001799 -0.645008
vn 0.736673 -0.026403 0.675734
vn 0.736673 -0.026403 0.675734
vn 0.736673 -0.026403 0.675734
vn 0.696334 0.717002 -0.032057
vn 0.696334 0.717002 -0.032057
vn 0.696334 0.717002 -0.032057
vn 0.696334 0.717002 -0.032057
vn 0.608591 0.696574 -0.380001
vn 0.608591 0.696574 -0.380001
vn 0.608591 0.696574 -0.380001
vn 0.644145 -0.088539 -0.759762
vn 0.644145 -0.088539 -0.759762
vn 0.644145 -0.088539 -0.759762
s off
g Skeleton_02_Desert
f 4/1/1 6/2/2 5/3/3 3/4/4
f 1/5/5 3/6/6 5/7/7 7/8/8
f 2/9/9 1/10/10 7/11/11 8/12/12
f 2/13/13 8/14/14 6/15/15 4/16/16
f 9/17/17 10/18/18 8/12/19 7/11/20
f 11/19/21 12/20/22 10/18/23 9/17/24
f 13/21/25 5/3/26 6/2/27 14/22/28
f 14/23/29 6/15/30 8/14/31 10/24/32
f 13/25/33 9/26/34 7/8/35 5/7/36
f 11/19/37 15/27/38 12/20/39
s 1
f 12/28/40 14/23/41 10/24/42
s 2
f 15/29/43 11/30/44 13/25/45
s off
f 13/21/46 14/22/47 15/31/48
s 2
f 13/25/45 11/30/44 9/26/49
s 1
f 15/32/50 14/23/41 12/28/40
s off
f 20/33/51 21/34/52 19/35/53 17/36/54
f 22/37/55 23/38/56 21/34/57 20/33/58
f 24/39/59 16/40/60 18/41/61 25/42/62
f 25/43/63 18/44/64 19/45/65 21/46/66
f 24/47/67 20/48/68 17/49/69 16/50/70
f 22/37/71 26/51/72 23/38/73
f 27/52/74 24/39/75 25/42/76 28/53/77
f 28/54/78 25/43/79 21/46/80 23/55/81
f 27/56/82 22/57/83 20/48/84 24/47/85
f 26/58/86 27/52/87 28/53/88
f 23/55/89 26/59/90 28/54/91
f 26/60/92 22/57/93 27/56/94
f 33/61/95 34/62/96 29/63/97 31/64/98
f 36/65/99 37/66/100 35/67/101 38/68/102
f 37/66/103 32/69/104 30/70/105 35/67/106
s 3
f 33/71/107 31/72/108 32/73/109 37/74/110
s off
f 34/75/111 35/76/112 30/77/113 29/78/114
f 38/68/115 39/79/116 36/65/117
f 40/80/118 41/81/119 34/62/120 33/61/121
s 3
f 40/82/122 33/71/107 37/74/110 36/83/123
s off
f 41/84/124 38/85/125 35/76/126 34/75/127
f 41/81/128 40/80/129 39/86/130
s 3
f 36/83/123 39/87/131 40/82/122
s off
f 41/84/132 39/88/133 38/85/134
f 43/89/135 44/90/136 42/91/137 45/92/138
f 46/93/139 43/94/140 45/95/141 47/96/142
f 48/97/143 46/98/144 47/99/145 49/100/146
f 42/91/147 49/100/148 47/99/149 45/92/150
f 51/101/151 49/100/152 50/102/153 52/103/154
f 44/90/155 50/102/156 42/91/157
f 52/103/158 50/102/159 44/90/160 54/104/161
f 51/101/162 53/105/163 48/97/164 49/100/165
f 56/106/166 57/107/167 55/108/168 58/109/169
f 55/108/170 57/107/171 51/101/172 52/103/173
f 52/103/174 54/104/175 55/108/176
f 59/110/177 56/106/178 58/109/179 64/111/180
f 60/112/181 58/109/182 55/108/183 54/104/184
f 61/113/185 53/105/186 57/107/187 56/106/188
f 60/112/189 64/111/190 58/109/191
f 61/113/192 56/106/193 59/110/194
f 66/114/195 67/115/196 65/116/197 72/117/198
f 62/118/199 61/113/200 59/110/201 68/119/202
f 68/119/203 59/110/204 64/111/205 69/120/206
f 63/121/207 69/120/208 64/111/209 60/112/210
f 70/122/211 71/123/212 67/124/213 66/125/214
f 70/126/215 66/114/216 72/117/217 63/121/218
f 71/127/219 62/118/220 65/116/221 67/115/222
f 62/118/223 68/119/224 65/116/225
f 63/121/226 72/117/227 69/120/228
f 65/116/229 68/119/230 69/120/231 72/117/232
f 42/91/233 50/102/234 49/100/235
f 51/101/236 57/107/237 53/105/238
