# This file uses centimeters as units for non-parametric coordinates.

g default
v 0.022312 0.259015 -0.120047
v -0.393436 -0.000000 0.126307
v 0.027725 0.265934 0.132570
v -0.024101 -0.000000 -0.126310
v -0.393436 -0.000000 -0.126310
v 0.266571 0.152309 -0.120047
v -0.024097 0.000000 0.126308
v 0.271984 0.159228 0.132572
v 0.382797 0.523536 -0.117958
v 0.393436 0.548677 0.080378
v 0.246902 1.042543 -0.132572
v 0.230286 1.044390 -0.003133
v 0.178146 0.527484 -0.107520
v 0.188786 0.552625 0.088730
v 0.100845 1.179113 -0.019835
v 0.084793 1.147054 -0.126310
vn -0.313032 0.949547 -0.019289
vn -0.313032 0.949547 -0.019289
vn -0.300231 0.953867 -0.000000
vn -0.300231 0.953867 -0.000000
vn 0.013295 0.016994 -0.999767
vn 0.013295 0.016994 -0.999767
vn 0.011967 0.017723 -0.999771
vn 0.011967 0.017723 -0.999771
vn 0.326019 -0.945363 0.000000
vn 0.326019 -0.945363 0.000000
vn 0.337713 -0.941067 0.018525
vn 0.337713 -0.941067 0.018525
vn -0.011620 -0.017181 0.999785
vn -0.011620 -0.017181 0.999785
vn -0.012900 -0.016489 0.999781
vn -0.012900 -0.016489 0.999781
vn 0.935794 -0.352504 -0.005494
vn 0.935794 -0.352504 -0.005494
vn 0.934744 -0.355173 -0.010285
vn 0.934744 -0.355173 -0.010285
vn 0.937547 0.328065 0.115669
vn 0.937547 0.328065 0.115669
vn 0.964584 0.250232 -0.083441
vn 0.964584 0.250232 -0.083441
vn -0.864936 0.501860 0.004761
vn -0.864936 0.501860 0.004761
vn -0.872730 0.487966 -0.015199
vn -0.872730 0.487966 -0.015199
vn 0.074150 0.109889 0.991174
vn 0.074150 0.109889 0.991174
vn 0.042596 0.106752 0.993373
vn 0.042596 0.106752 0.993373
vn -0.050432 0.024342 -0.998431
vn -0.050432 0.024342 -0.998431
vn 0.022586 0.033477 -0.999184
vn 0.022586 0.033477 -0.999184
vn -0.986579 -0.146453 0.072209
vn -0.986579 -0.146453 0.072209
vn -0.978028 -0.106210 0.179393
vn -0.978028 -0.106210 0.179393
vn 0.043535 0.176503 0.983337
vn 0.043535 0.176503 0.983337
vn 0.069008 0.187765 0.979787
vn 0.069008 0.187765 0.979787
vn -0.068071 -0.045903 -0.996624
vn -0.068071 -0.045903 -0.996624
vn -0.051617 -0.038045 -0.997942
vn -0.051617 -0.038045 -0.997942
vn 0.632905 0.766567 -0.108660
vn 0.632905 0.766567 -0.108660
vn 0.632905 0.766567 -0.108660
vn 0.632905 0.766567 -0.108660
s off
g Skeleton_01_Desert
f 2//1 3//2 1//3 5//4
f 4//5 5//6 1//7 6//8
f 7//9 4//10 6//11 8//12
f 7//13 8//14 3//15 2//16
f 9//17 10//18 8//19 6//20
f 11//21 12//22 10//23 9//24
f 13//25 1//26 3//27 14//28
f 14//29 3//30 8//31 10//32
f 13//33 9//34 6//35 1//36
f 16//37 13//38 14//39 15//40
f 15//41 14//42 10//43 12//44
f 16//45 11//46 9//47 13//48
f 12//49 11//50 16//51 15//52
